<svg xmlns="http://www.w3.org/2000/svg" width="41.928" height="42.318" viewBox="0 0 41.928 42.318"><g transform="translate(0.5 0.5)"><path d="M39.139,30.45a2.424,2.424,0,0,1,.325-1.212,3.348,3.348,0,0,1,.207-.308,16.2,16.2,0,0,0,2.715-8.969C42.415,10.8,34.761,3.375,25.3,3.375a17,17,0,0,0-16.755,13.2,16.108,16.108,0,0,0-.364,3.4A16.768,16.768,0,0,0,25,36.767,20.087,20.087,0,0,0,29.645,36c1.112-.308,2.214-.715,2.5-.824a2.579,2.579,0,0,1,.915-.169,2.537,2.537,0,0,1,.994.2l5.578,2a1.32,1.32,0,0,0,.384.1.787.787,0,0,0,.787-.795,1.287,1.287,0,0,0-.049-.268Z" transform="translate(-1.458 -3.375)" fill="#6a6a6a" stroke="#61c8f1" stroke-width="1"/><path d="M29.988,33.661c-.354.1-.807.209-1.3.318a18,18,0,0,1-3.345.447A16.768,16.768,0,0,1,8.52,17.63,18.954,18.954,0,0,1,8.668,15.5c.059-.427.128-.854.226-1.271.1-.447.216-.894.344-1.331l-.787.705A14.748,14.748,0,0,0,5.815,32.866c.226.348.354.616.315.795s-1.171,6.158-1.171,6.158a.78.78,0,0,0,.767.944.7.7,0,0,0,.285-.06l5.519-2.2a1.524,1.524,0,0,1,1.181.02,16.422,16.422,0,0,0,5.972,1.192A15.391,15.391,0,0,0,30.5,34.247s.315-.437.679-.953C30.814,33.422,30.4,33.552,29.988,33.661Z" transform="translate(-3.375 0.556)" fill="#6a6a6a" stroke="#61c8f1" stroke-width="1"/></g></svg>