<svg xmlns="http://www.w3.org/2000/svg" width="39.388" height="45.388" viewBox="0 0 39.388 45.388"><path d="M19.694,0C8.817,0,0,10.16,0,22.694S8.817,45.388,19.694,45.388s19.694-10.16,19.694-22.694S30.571,0,19.694,0Zm5,14.474-3.444,6.874a2.434,2.434,0,0,1,.377,1.31,2.1,2.1,0,0,1-1.932,2.226,2.1,2.1,0,0,1-1.932-2.226,2.258,2.258,0,0,1,1.153-2.035V7.692a.779.779,0,0,1,1.557,0V19.31l2.873-5.735c.121-.242.521-.237.893.011S24.815,14.231,24.694,14.474Z" transform="translate(0 0)" fill="#0a94d5"/></svg>