<svg xmlns="http://www.w3.org/2000/svg" width="64.829" height="64.815" viewBox="0 0 64.829 64.815"><path d="M32.417,18.027A16.618,16.618,0,1,0,49.034,34.645,16.591,16.591,0,0,0,32.417,18.027Zm0,27.421a10.8,10.8,0,1,1,10.8-10.8A10.823,10.823,0,0,1,32.417,45.449Zm21.173-28.1a3.876,3.876,0,1,1-3.876-3.876A3.867,3.867,0,0,1,53.59,17.348ZM64.6,21.282C64.35,16.089,63.164,11.49,59.361,7.7S50.972,2.726,45.78,2.465c-5.351-.3-21.39-.3-26.742,0C13.861,2.711,9.262,3.9,5.458,7.687S.483,16.075.223,21.267c-.3,5.351-.3,21.39,0,26.742C.468,53.2,1.654,57.8,5.458,61.589s8.388,4.975,13.581,5.236c5.351.3,21.39.3,26.742,0,5.192-.246,9.791-1.432,13.581-5.236S64.336,53.2,64.6,48.009c.3-5.351.3-21.376,0-26.727ZM57.683,53.75a10.938,10.938,0,0,1-6.161,6.161c-4.267,1.692-14.39,1.3-19.105,1.3s-14.853.376-19.105-1.3A10.938,10.938,0,0,1,7.15,53.75c-1.692-4.267-1.3-14.39-1.3-19.105S5.472,19.792,7.15,15.54a10.938,10.938,0,0,1,6.161-6.161c4.267-1.692,14.39-1.3,19.105-1.3S47.27,7.7,51.522,9.379a10.938,10.938,0,0,1,6.161,6.161c1.692,4.267,1.3,14.39,1.3,19.105S59.375,49.5,57.683,53.75Z" transform="translate(0.005 -2.238)" fill="#61c8f1"/></svg>