<svg xmlns="http://www.w3.org/2000/svg" width="36.105" height="38.935" viewBox="0 0 36.105 38.935"><path d="M.2,11.621,7.176.63A1.305,1.305,0,0,1,7.791.1a1.329,1.329,0,0,1,1.6.492l6.972,11.032a1.275,1.275,0,0,1-1.394,1.928l-3.814-.9V23.638a18.161,18.161,0,0,1,12.3-5.045h0l-.9-3.855a1.294,1.294,0,0,1,1.928-1.394l10.991,6.972a1.305,1.305,0,0,1,.533.615,1.329,1.329,0,0,1-.492,1.6L24.484,29.5a1.275,1.275,0,0,1-1.928-1.394l.9-3.814a12.652,12.652,0,0,0-12.3,12.632v1.148a.841.841,0,0,1-.861.861H6.315a.841.841,0,0,1-.861-.861V12.646l-3.814.9A1.286,1.286,0,0,1,.2,11.621Z" fill="#0a94d5"/></svg>