<svg xmlns="http://www.w3.org/2000/svg" width="86.799" height="86.799" viewBox="0 0 86.799 86.799"><g transform="translate(-195.6 -194.6)"><path d="M239,281a42.83,42.83,0,1,1,16.772-3.391A42.729,42.729,0,0,1,239,281Zm0-30.405h0a38.053,38.053,0,0,0-15.228,3.171,37.6,37.6,0,0,0-13.09,9.513,37.9,37.9,0,0,0,56.633,0,37.69,37.69,0,0,0-20.567-11.891A38.286,38.286,0,0,0,239,250.6Zm-.008-5.039h0a43.112,43.112,0,0,1,16.861,3.426,42.569,42.569,0,0,1,14.6,10.269,37.961,37.961,0,1,0-62.92,0,42.687,42.687,0,0,1,22.889-12.839A43.349,43.349,0,0,1,238.993,245.556Z" fill="#0a94d5" stroke="#fff" stroke-width="0.8"/><path d="M239,240.52A15.134,15.134,0,0,1,223.883,225.4v-5.039a15.117,15.117,0,1,1,30.234,0V225.4A15.134,15.134,0,0,1,239,240.52Zm0-30.235a10.09,10.09,0,0,0-10.078,10.078V225.4a10.078,10.078,0,1,0,20.156,0v-5.039A10.089,10.089,0,0,0,239,210.285Z" fill="#0a94d5" stroke="#fff" stroke-width="0.8"/></g></svg>