<svg xmlns="http://www.w3.org/2000/svg" width="535.652" height="394.428" viewBox="0 0 535.652 394.428"><g transform="translate(-310.877 -1013.281)"><g transform="translate(310.877 1028.297)"><path d="M40.669,345.7S-5.891,315.14.625,247.265c7.215-75.158,36.826-83.372,59.237-94.406,25.436-12.526,47.2-14.689,76.376-76.6C174.748-5.465,244.047.079,270.277.079c89.067,0,88,88.314,131,132.273,40.481,41.371,128.946,131.054,28.749,210.5C377.853,384.206,124.1,397.362,40.669,345.7Z" transform="translate(0 0)" fill="#4cd964"/><g transform="translate(386.568 -15.016)"><path d="M149.084,74.542A74.542,74.542,0,1,1,74.542,0,74.542,74.542,0,0,1,149.084,74.542Z" fill="#4cd964"/><g transform="translate(32.663 47.835)"><path d="M31.105,56.987,2.945,34.44a7.6,7.6,0,0,1-1.9-9.8,7.419,7.419,0,0,1,10.993-1.944l25.6,20.494L70.587,2.734A7.425,7.425,0,0,1,82.1,12.112L46.9,55.3A11.277,11.277,0,0,1,31.105,56.987Z" transform="translate(0 0)" fill="#fff"/></g></g><path d="M41.42,15.546c-.712-2.806-6.078-4.025-13.279-3.436a3.29,3.29,0,0,1-3.286-1.958C21.98,3.526,18.352-.622,15.546.076S11.521,6.155,12.11,13.356a3.29,3.29,0,0,1-1.958,3.286C3.526,19.516-.622,23.144.076,25.95s6.078,4.025,13.279,3.436a3.29,3.29,0,0,1,3.286,1.958c2.875,6.626,6.5,10.774,9.309,10.076s4.025-6.078,3.436-13.279a3.29,3.29,0,0,1,1.958-3.286C37.97,21.967,42.132,18.352,41.42,15.546Z" transform="translate(13.199 59.526)" fill="#4dc1ef"/><path d="M42.1,24.525c.465-2.848-3.984-6.119-10.815-8.433a3.286,3.286,0,0,1-2.231-3.108C29.042,5.769,27.386.512,24.525.033s-6.119,3.984-8.433,10.815a3.286,3.286,0,0,1-3.108,2.231C5.769,13.094.512,14.75.033,17.611s3.984,6.119,10.815,8.433a3.286,3.286,0,0,1,2.231,3.108c.014,7.215,1.67,12.472,4.531,12.951s6.119-3.984,8.433-10.815a3.286,3.286,0,0,1,3.108-2.231C36.38,29.042,41.637,27.386,42.1,24.525Z" transform="translate(461.11 228.6)" fill="#edb82c"/><path d="M33.971,16.986A16.986,16.986,0,1,1,16.986,0,16.986,16.986,0,0,1,33.971,16.986Z" transform="translate(6.899 310.52)" fill="#4dc1ef"/></g><g transform="translate(405.215 1183.852)"><path d="M145.913,93.886c0,42.4-27.313,73.263-73.03,73.263C30.38,167.149,0,142.055,0,95.761H30.819c0,28.123,13.73,42.4,41.919,42.4,28.482,0,41.773-19.469,41.773-44.275V28.844h-50.1V0h81.355V93.886Z" transform="translate(0 0)" fill="#f8f9ff"/><path d="M131.093,91.006a39.842,39.842,0,0,0-6.573-11.537,36.146,36.146,0,0,0-14.314-9.951,67.313,67.313,0,0,0-24.83-4.471h-.293C75.3,64.9,45.941,63.027,45.5,63.027h-.146c-17.527,0-18.988-6.49-19.28-16.441A23.983,23.983,0,0,1,27.1,38.077l.146-.577c3.214-11.393,14.168-11.538,14.607-11.538h48.93c13.582-.144,14.314,8.8,14.9,15.287a21.964,21.964,0,0,0,.584,4.038l.584,1.586,25.123.288.291-2.019c.146-.721,3.214-19.325-8.18-32.593C116.78,4.042,105.1-.141,89.613,0H39.368a36.416,36.416,0,0,0-29.8,15.143C-3.72,31.876.516,56.249,1.1,59.278c2.337,16.585,14.46,22.21,19.718,23.94l.584.144c8.179,2.884,26,4.182,28.043,4.326L87.275,90c14.168,1.154,20.011,17.018,20.011,17.162,1.9,5.624,1.459,12.259,1.023,19.181v.433c-.439,8.076-6.427,9.951-8.18,10.384-3.652-.144-6.134-1.875-6.427-8.942-.146-3.317,0-9.807,0-11.1v-.288C93.118,103.553,79.827,93.313,68.288,92.3c-13.877-1.154-30.527,4.471-33.741,19.758-.73,3.605-.73,10.528-.584,16.729a90.564,90.564,0,0,1-.146,9.23,7.341,7.341,0,0,1-2.336-.288c-2.336-.865-3.507-5.336-3.652-6.634-.73-10.1,0-40.958,0-41.247V87.4H1.977l.876,45a35.343,35.343,0,0,0,3.943,16.3c7.3,14.278,23.078,14.278,25.269,14.133h1.459c23.955,0,24.977-17.018,24.977-17.162v-.144l-.146-22.354c.291-2.884,4.089-3.606,6.28-3.606,3.214,0,6.718,1.442,7.011,4.038a42.992,42.992,0,0,1,.146,4.471v3.75c0,4.326,0,8.509.146,9.807.293,6.923,2.775,12.259,7.6,16.008,4.82,3.606,11.393,5.48,19.864,5.48a50.464,50.464,0,0,0,10.663-1.01c23.953-4.471,25.414-35.045,25.414-36.343C136.2,111.2,133.577,97.5,131.093,91.006Z" transform="translate(151.97 1.15)" fill="#f8f9ff"/></g></g></svg>