<?xml version="1.0" encoding="utf-8"?>
<!-- Generator: Adobe Illustrator 24.0.2, SVG Export Plug-In . SVG Version: 6.00 Build 0)  -->
<svg version="1.1" id="Layer_1" xmlns="http://www.w3.org/2000/svg" xmlns:xlink="http://www.w3.org/1999/xlink" x="0px" y="0px"
	 viewBox="0 0 381.6 381.6" style="enable-background:new 0 0 381.6 381.6;" xml:space="preserve">
<style type="text/css">
	.st0{clip-path:url(#SVGID_3_);fill:#E3171E;}
	.st1{clip-path:url(#SVGID_3_);fill:#030505;}
	.st2{fill:#030505;}
	.st3{fill:#E4151C;}
	.st4{fill:#A6A5A4;}
	.st5{fill:#3E3E40;}
	.st6{fill:#F4F6F7;}
	.st7{fill:#E3171E;}
	.st8{fill:#363B45;}
	.st9{fill:none;stroke:url(#SVGID_4_);stroke-miterlimit:10;}
	.st10{fill:none;stroke:url(#SVGID_5_);stroke-miterlimit:10;}
	.st11{clip-path:url(#SVGID_7_);fill:#F7F2EC;}
	.st12{opacity:0.26;clip-path:url(#SVGID_7_);}
	.st13{fill:#EFE7DB;}
	.st14{clip-path:url(#SVGID_7_);}
	.st15{opacity:0.58;}
	.st16{fill-rule:evenodd;clip-rule:evenodd;fill:#EFE7DB;}
	.st17{fill-rule:evenodd;clip-rule:evenodd;fill:#E7DCC9;}
	.st18{fill:#020203;}
	.st19{fill:#383736;}
	.st20{opacity:0.15;}
	.st21{fill-rule:evenodd;clip-rule:evenodd;fill:#020203;}
	.st22{fill:#F7F2EC;}
	.st23{opacity:0.18;}
	.st24{fill:#E0E0E0;}
	.st25{fill:#E5E2E2;}
	.st26{fill:url(#SVGID_8_);}
	.st27{fill:url(#SVGID_9_);}
	.st28{fill:url(#SVGID_10_);}
	.st29{fill:#FFFFFF;}
	.st30{fill:url(#SVGID_11_);}
	.st31{fill:url(#SVGID_12_);}
	.st32{opacity:0.5;}
	.st33{fill:#341231;}
	.st34{opacity:0.5;fill:#341231;}
	.st35{fill:url(#SVGID_13_);}
	.st36{fill:url(#SVGID_14_);}
	.st37{fill:url(#SVGID_15_);}
	.st38{opacity:0.4;fill:#1A1A38;}
	.st39{fill:url(#SVGID_16_);}
	.st40{fill:url(#SVGID_17_);}
	.st41{fill:url(#SVGID_18_);}
	.st42{fill:url(#SVGID_19_);}
	.st43{clip-path:url(#SVGID_21_);}
	.st44{fill:url(#SVGID_22_);}
	.st45{fill:#D8D8D8;}
	.st46{fill:url(#SVGID_23_);}
	.st47{fill:url(#SVGID_24_);}
	.st48{fill:#A01916;}
	.st49{fill:none;stroke:#E4151C;stroke-width:14;stroke-miterlimit:10;}
	.st50{fill:#1DBBEE;}
	.st51{fill:#09869B;}
	.st52{fill:url(#SVGID_25_);}
	.st53{fill:url(#SVGID_26_);}
	.st54{fill:url(#SVGID_27_);}
	.st55{fill:url(#SVGID_28_);}
	.st56{fill:url(#SVGID_29_);}
	.st57{fill:url(#SVGID_30_);}
	.st58{fill:url(#SVGID_31_);}
	.st59{fill:url(#SVGID_32_);}
	.st60{fill:#F9FAFB;}
	.st61{fill:url(#SVGID_33_);}
	.st62{fill:url(#SVGID_34_);}
	.st63{fill:url(#SVGID_35_);}
	.st64{fill:url(#SVGID_36_);}
	.st65{fill:url(#SVGID_37_);}
	.st66{fill:url(#SVGID_38_);}
	.st67{fill:url(#SVGID_39_);}
	.st68{fill:url(#SVGID_40_);}
	.st69{fill:url(#SVGID_41_);}
	.st70{fill:url(#SVGID_42_);}
	.st71{fill:url(#SVGID_43_);}
	.st72{fill:url(#SVGID_44_);}
	.st73{fill:#B7B7B7;}
	.st74{fill:#919193;}
</style>
<g>
	<linearGradient id="SVGID_2_" gradientUnits="userSpaceOnUse" x1="184.7748" y1="317.083" x2="190.8327" y2="167.6561">
		<stop  offset="0" style="stop-color:#09869B"/>
		<stop  offset="1" style="stop-color:#1DBBEE"/>
	</linearGradient>
	<path style="fill:url(#SVGID_2_);" d="M109.68,130.98c10.11-0.23,19.64,7.92,20.54,17.75c0.48,5.26,0.32,10.58,0.34,15.87
		c0.04,13.35-0.04,26.7,0.03,40.06c0.06,11.6,7.66,21.39,18.62,24.23c15.66,4.05,30.9-7.59,31.19-23.98
		c0.19-10.5,3.23-19.93,9.65-28.25c16.08-20.85,46.72-23.83,66.34-6.28c12.72,11.37,17.3,25.75,14.94,42.62
		c-0.59,0.03-1.08,0.07-1.56,0.07c-10.87,0-21.74,0.02-32.61,0c-10.89-0.03-19.79-8.13-20.83-18.94c-0.06-0.59-0.01-1.19-0.01-1.91
		c10.39,0,20.68,0,31.21,0c-1.21-2.59-2.92-4.51-4.88-6.15c-7.44-6.26-15.89-8.07-25.02-4.69c-9.11,3.37-14.46,10.21-16.08,19.78
		c-0.54,3.19-0.35,6.5-0.75,9.72c-2.28,18.75-17.02,34.71-35.53,38.59c-25.6,5.37-49.86-10.77-54.83-36.56
		c-0.49-2.53-0.74-5.15-0.75-7.72c-0.06-24.22-0.03-48.44-0.03-72.67C109.68,132.05,109.68,131.56,109.68,130.98z"/>
	<linearGradient id="SVGID_3_" gradientUnits="userSpaceOnUse" x1="193.403" y1="233.2805" x2="270.4566" y2="233.2805">
		<stop  offset="0" style="stop-color:#09869B"/>
		<stop  offset="1" style="stop-color:#1DBBEE"/>
	</linearGradient>
	<path style="fill:url(#SVGID_3_);" d="M270.46,216.83c-5.15,16.22-15.44,27.3-31.73,31.88c-17.3,4.86-32.47,0.32-45.32-11.9
		c2.16-3.52,4.43-6.71,6.16-10.18c1.71-3.41,2.87-7.1,4.28-10.7c0.11,0.16,0.33,0.43,0.5,0.74c9.31,16.69,32.52,17.46,42.85,1.39
		c0.6-0.94,1.19-1.35,2.34-1.34c6.4,0.06,12.79,0.03,19.19,0.03C269.21,216.76,269.69,216.8,270.46,216.83z"/>
	<linearGradient id="SVGID_4_" gradientUnits="userSpaceOnUse" x1="134.2115" y1="176.4205" x2="188.3974" y2="176.4205">
		<stop  offset="0" style="stop-color:#09869B"/>
		<stop  offset="1" style="stop-color:#1DBBEE"/>
	</linearGradient>
	<path style="fill:url(#SVGID_4_);" d="M178.1,193.89c-9.19-17.72-32.95-18.75-43.75-2.49c-0.05-0.58-0.12-0.97-0.12-1.36
		c-0.01-8.17,0-16.33-0.02-24.5c0-0.88,0.11-1.47,1.05-1.95c16.78-8.66,39.51-4.88,52.55,8.78c0.15,0.16,0.29,0.33,0.59,0.68
		C183.43,179.1,179.92,185.93,178.1,193.89z"/>
	<g>
		<linearGradient id="SVGID_5_" gradientUnits="userSpaceOnUse" x1="155.795" y1="233.0643" x2="156.5523" y2="194.6979">
			<stop  offset="0.0698" style="stop-color:#18B1DF"/>
			<stop  offset="0.2961" style="stop-color:#09869B"/>
			<stop  offset="0.7402" style="stop-color:#1DBBEE"/>
			<stop  offset="1" style="stop-color:#1DBBEE"/>
		</linearGradient>
		<path style="fill:url(#SVGID_5_);" d="M175.61,203.04c-1.23-9.64-9.45-16.85-19.43-16.85c-0.76-0.03-1.71,0.04-2.67,0.19
			c-9.07,1.35-16,8.83-16.57,17.89c-0.13,2.12,0.08,4.21,0.6,6.18c1.45,5.55,5.68,10.71,11.59,13.13c0,0,9.23,3.76,18.6-2.27
			c0.11-0.07,0.43-0.28,0.44-0.57c0.01-0.18-0.1-0.38-0.35-0.6c-0.59-0.52-0.99-1.13-1.22-1.92c-0.36-1.2-1.25-1.45-2.28-0.75
			c-2.08,1.43-4.4,2.2-6.88,2.37c-2.19,0.15-4.33-0.04-6.44-0.94c-5.23-2.23-8.9-7.35-8.98-12.87c-0.11-7.52,4.93-13.48,12.41-14.64
			c8.16-1.28,16.05,5.33,16.24,13.59c0.07,3.2-0.73,6.14-2.56,8.78c-0.21,0.31-0.62,0.63-0.23,1.06c0.39,0.43,0.73,0.95,1.36,1.07
			c0.6,0.12,1.07,0.46,1.5,0.89c0.87,0.86,0.89,0.86,1.6-0.19C175.12,212.47,176.23,207.96,175.61,203.04z"/>
		<linearGradient id="SVGID_7_" gradientUnits="userSpaceOnUse" x1="155.8018" y1="233.0644" x2="156.559" y2="194.6981">
			<stop  offset="0.0698" style="stop-color:#18B1DF"/>
			<stop  offset="0.2961" style="stop-color:#09869B"/>
			<stop  offset="0.7402" style="stop-color:#1DBBEE"/>
			<stop  offset="1" style="stop-color:#1DBBEE"/>
		</linearGradient>
		<path style="fill:url(#SVGID_7_);" d="M156.35,194.38c-6.12,0-11.21,5.03-11.22,11.1c-0.02,6.22,5.03,11.31,11.21,11.31
			c6.14,0,11.21-5.07,11.22-11.21C167.57,199.43,162.52,194.38,156.35,194.38z M153.91,199.27c-2.54,1.11-3.82,3.07-3.71,5.8
			c0.04,0.99,0.45,2.01,0.89,2.93c0.62,1.29,0.67,2.05-0.13,2.56c-0.84,0.54-1.67,0.19-2.45-1c-2.98-4.6-0.89-11.05,4.23-13.05
			c1.13-0.44,1.97-0.23,2.34,0.59C155.49,197.97,155.1,198.75,153.91,199.27z"/>
	</g>
</g>
</svg>
