<svg xmlns="http://www.w3.org/2000/svg" xmlns:xlink="http://www.w3.org/1999/xlink" width="738.887" height="557.07" viewBox="0 0 738.887 557.07"><defs><linearGradient id="a" x1="1.5" y1="1.001" x2="1.5" gradientUnits="objectBoundingBox"><stop offset="0" stop-color="#4462ad"/><stop offset="1" stop-color="#4ec4f2"/></linearGradient><linearGradient id="b" x1="1.503" y1="1.002" x2="1.503" y2="0.001" gradientUnits="objectBoundingBox"><stop offset="0" stop-color="#4670b7"/><stop offset="1" stop-color="#4ec4f2"/></linearGradient></defs><g transform="translate(-744.24 -1013.74)"><g transform="translate(744.24 1013.74)"><path d="M59.711,507.567S-8.65,462.7.918,363.047C11.511,252.7,54.988,240.636,87.892,224.435c37.346-18.392,69.306-21.568,112.139-112.461C256.573-8.024,358.32.116,396.832.116c130.772,0,129.2,129.667,192.339,194.209,59.436,60.743,189.324,192.42,42.211,309.062C554.78,564.109,182.2,583.426,59.711,507.567Z" transform="translate(0 0)" fill="#b3f3ff"/><g transform="translate(497.112 48.157)"><path d="M218.891,109.446A109.446,109.446,0,1,1,109.446,0,109.446,109.446,0,0,1,218.891,109.446Z" fill="#4dc1ef"/><g transform="translate(47.957 70.233)"><path d="M45.67,83.672,4.324,50.566A11.158,11.158,0,0,1,1.53,36.175a10.893,10.893,0,0,1,16.14-2.854L55.258,63.41l48.381-59.4a10.9,10.9,0,0,1,16.9,13.769L68.866,81.2A16.557,16.557,0,0,1,45.67,83.672Z" transform="translate(0 0)" fill="#fff"/></g></g><path d="M60.815,22.825c-1.045-4.121-8.924-5.909-19.5-5.045a4.831,4.831,0,0,1-4.824-2.874C32.272,5.177,26.946-.913,22.825.112c-4.121,1.045-5.909,8.925-5.045,19.5a4.831,4.831,0,0,1-2.874,4.824C5.177,28.654-.913,33.981.112,38.1c1.045,4.121,8.924,5.909,19.5,5.045a4.831,4.831,0,0,1,4.824,2.874C28.654,55.75,33.981,61.84,38.1,60.815c4.121-1.045,5.909-8.925,5.045-19.5a4.831,4.831,0,0,1,2.874-4.824C55.75,32.252,61.86,26.946,60.815,22.825Z" transform="translate(19.379 87.398)" fill="#4dc1ef"/><path d="M61.817,36.008c.683-4.181-5.849-8.985-15.879-12.382a4.825,4.825,0,0,1-3.276-4.563C42.641,8.471,40.209.752,36.008.049,31.827-.634,27.023,5.9,23.627,15.928A4.825,4.825,0,0,1,19.064,19.2C8.471,19.225.752,21.657.049,25.858-.634,30.039,5.9,34.843,15.928,38.239A4.825,4.825,0,0,1,19.2,42.8c.02,10.593,2.452,18.311,6.653,19.015,4.181.683,8.985-5.849,12.382-15.879A4.825,4.825,0,0,1,42.8,42.661C53.415,42.641,61.134,40.209,61.817,36.008Z" transform="translate(677.021 335.641)" fill="#ffb900"/><path d="M49.878,24.939A24.939,24.939,0,1,1,24.939,0,24.939,24.939,0,0,1,49.878,24.939Z" transform="translate(10.129 455.92)" fill="#4dc1ef"/></g><g transform="translate(838.485 1242)"><path d="M215.375,138.581c0,62.585-40.316,108.14-107.8,108.14C44.843,246.721,0,209.681,0,141.349H45.49c0,41.51,20.266,62.585,61.874,62.585,42.04,0,61.659-28.738,61.659-65.352V42.575H95.076V0H215.16V138.581Z" transform="translate(0 0)" fill="url(#a)"/><path d="M193.5,134.329c-4.1-10.431-8.625-15.753-9.7-17.03-5.173-6.173-12.288-11.07-21.128-14.688-10.349-4.257-23.5-6.6-36.65-6.6h-.432c-14.445-.213-57.778-2.98-58.425-2.98h-.215c-25.871,0-28.027-9.579-28.458-24.268C38.275,60.462,40,56.417,40,56.2l.215-.851c4.743-16.817,20.913-17.03,21.56-17.03H134c20.048-.213,21.128,12.986,21.99,22.565a32.42,32.42,0,0,0,.862,5.96l.862,2.342,37.082.426.43-2.98c.215-1.064,4.743-28.525-12.073-48.11C172.373,5.966,155.126-.208,132.274.005H58.109a53.752,53.752,0,0,0-43.98,22.352C-5.49,47.051.762,83.026,1.624,87.5c3.449,24.48,21.343,32.783,29.1,35.337l.862.213c12.072,4.257,38.376,6.173,41.392,6.386l55.839,3.406c20.913,1.7,29.538,25.119,29.538,25.332,2.8,8.3,2.154,18.094,1.51,28.312v.639c-.647,11.921-9.487,14.688-12.073,15.327-5.391-.213-9.054-2.767-9.487-13.2-.215-4.9,0-14.475,0-16.391v-.426c-.862-19.584-20.481-34.7-37.512-36.188-20.483-1.7-45.06,6.6-49.8,29.164-1.077,5.322-1.077,15.54-.862,24.693,0,4.683.218,10.644-.215,13.624a10.836,10.836,0,0,1-3.449-.426c-3.449-1.277-5.176-7.877-5.391-9.792-1.078-14.9,0-60.456,0-60.882v-3.619H2.918l1.294,66.417a52.168,52.168,0,0,0,5.821,24.055c10.78,21.075,34.064,21.075,37.3,20.862h2.154c35.358,0,36.868-25.119,36.868-25.332V214.8l-.215-33c.43-4.258,6.035-5.322,9.269-5.322,4.743,0,9.917,2.129,10.349,5.961a63.458,63.458,0,0,1,.215,6.6v5.535c0,6.386,0,12.559.215,14.475.432,10.218,4.1,18.094,11.211,23.629,7.115,5.322,16.817,8.089,29.32,8.089a74.488,74.488,0,0,0,15.74-1.49c35.355-6.6,37.512-51.728,37.512-53.644C201.045,164.131,197.167,143.909,193.5,134.329Z" transform="translate(224.315 1.698)" fill="url(#b)"/></g></g></svg>