<svg xmlns="http://www.w3.org/2000/svg" xmlns:xlink="http://www.w3.org/1999/xlink" width="90.911" height="103.104" viewBox="0 0 90.911 103.104"><defs><filter id="a" x="0" y="0" width="90.911" height="103.104" filterUnits="userSpaceOnUse"><feOffset dy="3" input="SourceAlpha"/><feGaussianBlur stdDeviation="5" result="b"/><feFlood flood-opacity="0.161"/><feComposite operator="in" in2="b"/><feComposite in="SourceGraphic"/></filter></defs><g transform="matrix(1, 0, 0, 1, 0, 0)" filter="url(#a)"><path d="M32.265,84.757a12.052,12.052,0,0,0-8.126,3.122L7.12,76.55A12.062,12.062,0,0,0,7.813,72.5a12.032,12.032,0,0,0-.692-4.045L24.138,57.132a12.15,12.15,0,0,0,20.279-9.027,12.153,12.153,0,0,0-24.306,0,12,12,0,0,0,.692,4.041L3.785,63.476a12.032,12.032,0,0,0-8.127-3.12A12.164,12.164,0,0,0-16.493,72.5,12.166,12.166,0,0,0-4.342,84.657a12.043,12.043,0,0,0,8.127-3.122L20.8,92.863a12.153,12.153,0,1,0,11.461-8.106Zm6.15,12.15a6.149,6.149,0,1,1-6.15-6.15A6.157,6.157,0,0,1,38.415,96.907Zm-12.3-48.8a6.149,6.149,0,1,1,6.149,6.149A6.158,6.158,0,0,1,26.117,48.105ZM1.808,72.5a6.158,6.158,0,0,1-6.15,6.153A6.158,6.158,0,0,1-10.491,72.5a6.158,6.158,0,0,1,6.149-6.153A6.158,6.158,0,0,1,1.808,72.5Z" transform="translate(31.49 -23.95)" fill="#fff"/></g></svg>