<svg xmlns="http://www.w3.org/2000/svg" width="27.58" height="24.511" viewBox="0 0 27.58 24.511"><path d="M19.278,4,23.6,8.317a.468.468,0,0,1,0,.661L13.139,19.435,8.7,19.928A.931.931,0,0,1,7.666,18.9l.493-4.444L18.617,4A.468.468,0,0,1,19.278,4Zm7.757-1.1L24.7.565a1.873,1.873,0,0,0-2.643,0l-1.7,1.7a.468.468,0,0,0,0,.661l4.319,4.319a.468.468,0,0,0,.661,0l1.7-1.7a1.873,1.873,0,0,0,0-2.643Zm-8.648,13.69v4.874H3.064V6.143h11a.589.589,0,0,0,.407-.168L16.39,4.06a.575.575,0,0,0-.407-.982H2.3A2.3,2.3,0,0,0,0,5.377V22.231a2.3,2.3,0,0,0,2.3,2.3H19.153a2.3,2.3,0,0,0,2.3-2.3V14.676a.576.576,0,0,0-.982-.407l-1.915,1.915A.589.589,0,0,0,18.387,16.591Z" transform="translate(0 -0.019)" fill="#61c8f1"/></svg>