<svg xmlns="http://www.w3.org/2000/svg" width="33.577" height="32.645" viewBox="0 0 33.577 32.645"><path d="M16.446,3.339A17.9,17.9,0,0,0,16.134,0H0V6.314H9.22A7.5,7.5,0,0,1,5.8,11.24v4.1h5.536a15.551,15.551,0,0,0,5.108-12Z" transform="translate(17.131 13.355)" fill="#4285f4"/><path d="M15.309,13.221A16.833,16.833,0,0,0,26.646,9.267l-5.536-4.1a10.674,10.674,0,0,1-5.8,1.558A10.166,10.166,0,0,1,5.723,0H0V4.229a17.229,17.229,0,0,0,15.309,8.992Z" transform="translate(1.822 19.424)" fill="#34a853"/><path d="M7.545,10.431a9.219,9.219,0,0,1,0-6.2V0H1.822a15.655,15.655,0,0,0,0,14.66l5.723-4.229Z" transform="translate(0 8.992)" fill="#fbbc05"/><path d="M15.309,6.492a9.509,9.509,0,0,1,6.549,2.441l4.913-4.682A16.916,16.916,0,0,0,15.309,0,17.229,17.229,0,0,0,0,8.992l5.723,4.229a10.166,10.166,0,0,1,9.586-6.729Z" transform="translate(1.822)" fill="#ea4335"/></svg>