<svg xmlns="http://www.w3.org/2000/svg" width="86.559" height="86.559" viewBox="0 0 86.559 86.559"><g transform="translate(-636.72 -194.721)"><ellipse cx="2.048" cy="2.048" rx="2.048" ry="2.048" transform="translate(681.365 224.349)" fill="#61c8f1"  stroke-width="0.559"/><ellipse cx="2.048" cy="2.048" rx="2.048" ry="2.048" transform="translate(663.619 224.349)" fill="#61c8f1"  stroke-width="0.559"/><path d="M2.048,9.542h2.73A2.048,2.048,0,0,0,5.324,5.52L6.609,2.949A2.048,2.048,0,0,0,2.946,1.118L.216,6.578A2.048,2.048,0,0,0,2.048,9.542Z" transform="translate(669.762 226.411)" fill="#61c8f1"  stroke-width="0.559"/><path d="M2.048,4.1h5.46a2.048,2.048,0,0,0,0-4.1H2.048a2.048,2.048,0,0,0,0,4.1Z" transform="translate(669.762 203.19)" fill="#61c8f1"  stroke-width="0.559"/><path d="M706.95,281H700a2.051,2.051,0,0,1-2.032-1.8l-.269-2.176-1.134-.47-1.73,1.348a2.047,2.047,0,0,1-2.706-.166l-4.918-4.918a2.049,2.049,0,0,1-.167-2.706l1.348-1.73-.47-1.134-2.177-.27a2.046,2.046,0,0,1-1.774-1.749l-8.081,7.069a2.047,2.047,0,0,1-2.7,0L658.011,259.02l-14.485,4.345a3.42,3.42,0,0,0-2.431,3.269v12.318a2.047,2.047,0,1,1-4.095,0V266.634a7.462,7.462,0,0,1,5.35-7.191l21.952-6.586V247.25c-.445-.31-.88-.638-1.292-.973a18.484,18.484,0,0,1-6.254-9.167,8.179,8.179,0,0,1-4.485-4.234,13.27,13.27,0,0,1-1.62-5.8,4.6,4.6,0,0,1,1.249-3.407,4.931,4.931,0,0,1,3.229-1.318,7.489,7.489,0,0,1-1.748-4.811v-9.575A12.983,12.983,0,0,1,666.349,195H682.73A12.983,12.983,0,0,1,695.7,207.968v9.575a7.484,7.484,0,0,1-1.748,4.811,4.925,4.925,0,0,1,3.229,1.318,4.6,4.6,0,0,1,1.249,3.407,13.269,13.269,0,0,1-1.62,5.8,8.179,8.179,0,0,1-4.485,4.234,18.484,18.484,0,0,1-6.254,9.167c-3.5,2.85-8.029,4.692-11.53,4.692a16.013,16.013,0,0,1-6.143-1.436v4.847a2.036,2.036,0,0,1-1.459,1.962l-4.3,1.289,11.9,10.409,9.406-8.23V258a2.05,2.05,0,0,1,1.8-2.032l2.176-.269.47-1.135-1.348-1.729a2.051,2.051,0,0,1,.167-2.707l4.918-4.917a2.048,2.048,0,0,1,2.707-.167l1.729,1.348,1.135-.47.269-2.177a2.05,2.05,0,0,1,2.032-1.8h6.953a2.051,2.051,0,0,1,2.032,1.8l.269,2.177,1.134.47,1.73-1.348a2.047,2.047,0,0,1,2.706.167l4.918,4.918a2.049,2.049,0,0,1,.167,2.706l-1.348,1.73.471,1.134,2.176.27A2.05,2.05,0,0,1,723,258v6.953a2.049,2.049,0,0,1-1.8,2.031l-2.176.27-.47,1.134,1.348,1.73a2.05,2.05,0,0,1-.167,2.706l-4.917,4.918a2.048,2.048,0,0,1-2.707.167l-1.729-1.348-1.135.47-.269,2.177A2.05,2.05,0,0,1,706.95,281Zm-10.707-8.837a2.041,2.041,0,0,1,.784.156l3.339,1.382a2.051,2.051,0,0,1,1.248,1.64l.194,1.564h3.333l.193-1.565a2.051,2.051,0,0,1,1.249-1.64l3.338-1.382a2.049,2.049,0,0,1,2.043.277l1.243.969,2.359-2.358-.969-1.243a2.05,2.05,0,0,1-.277-2.042l1.382-3.339a2.05,2.05,0,0,1,1.64-1.248l1.564-.194v-3.333l-1.565-.193a2.051,2.051,0,0,1-1.64-1.249l-1.382-3.338a2.052,2.052,0,0,1,.277-2.043l.969-1.243-2.358-2.357-1.242.969a2.06,2.06,0,0,1-1.259.432,2.035,2.035,0,0,1-.784-.156l-3.339-1.382a2.054,2.054,0,0,1-1.248-1.641l-.193-1.563h-3.334l-.193,1.563a2.054,2.054,0,0,1-1.248,1.641l-3.339,1.382a2.035,2.035,0,0,1-.784.156,2.059,2.059,0,0,1-1.259-.432l-1.243-.969-2.357,2.357.969,1.243a2.054,2.054,0,0,1,.277,2.043l-1.383,3.338a2.051,2.051,0,0,1-1.641,1.249l-1.563.193v3.332l1.563.193a2.052,2.052,0,0,1,1.641,1.248l1.383,3.339a2.054,2.054,0,0,1-.277,2.043l-.969,1.243,2.358,2.359,1.243-.969A2.057,2.057,0,0,1,696.243,272.163Zm-36.036-47.145h0v7.521a13.409,13.409,0,0,0,4.71,10.02,16.721,16.721,0,0,0,9.623,4.314c4.286,0,14.333-4.877,14.333-14.333v-7.52c-.2.02-.4.029-.611.029a14.378,14.378,0,0,1-2.674-.343c-.521-.1-1.058-.2-1.575-.266a2.056,2.056,0,0,1,1.4,2.41,2.036,2.036,0,0,1-1.995,1.6,2.048,2.048,0,1,1,0-4.1h.009a58.84,58.84,0,0,0-17.765,0h.01a2.048,2.048,0,1,1-.6.089c-.519.063-1.056.166-1.575.267a14.3,14.3,0,0,1-2.669.343C660.611,225.048,660.4,225.038,660.207,225.018Zm32.762,1.382h0v4.934a9.164,9.164,0,0,0,1.365-4.254,1.7,1.7,0,0,0-.057-.5,3.8,3.8,0,0,0-1.309-.175Zm-36.858,0a3.8,3.8,0,0,0-1.309.175,1.677,1.677,0,0,0-.056.5,9.173,9.173,0,0,0,1.364,4.254V226.4Zm18.429-6.825a68.079,68.079,0,0,1,13,1.319,3.416,3.416,0,0,0,4.059-3.174,66.4,66.4,0,0,0-34.118,0,3.418,3.418,0,0,0,3.413,3.236,3.437,3.437,0,0,0,.646-.061A68.084,68.084,0,0,1,674.54,219.575Zm0-8.181a70.376,70.376,0,0,1,17.064,2.1v-5.527a8.883,8.883,0,0,0-8.873-8.873H666.349a8.883,8.883,0,0,0-8.873,8.873V213.5A70.379,70.379,0,0,1,674.54,211.393Z" fill="#61c8f1"  stroke-width="0.559"/><path d="M703.471,269.824h0a8.35,8.35,0,0,1,0-16.7h.02a8.35,8.35,0,0,1-.022,16.7Zm0-12.6a4.254,4.254,0,1,0,3.01,1.246A4.233,4.233,0,0,0,703.473,257.219Z" fill="#61c8f1"  stroke-width="0.559"/></g></svg>