<?xml version="1.0" encoding="utf-8"?>
<!-- Generator: Adobe Illustrator 24.0.2, SVG Export Plug-In . SVG Version: 6.00 Build 0)  -->
<svg version="1.1" id="Layer_1" xmlns="http://www.w3.org/2000/svg" xmlns:xlink="http://www.w3.org/1999/xlink" x="0px" y="0px"
	 viewBox="0 0 525.02 393.12" style="enable-background:new 0 0 525.02 393.12;" xml:space="preserve">
<style type="text/css">
	.st0{fill:url(#SVGID_1_);}
	.st1{fill:#FFFFFF;stroke:#010202;stroke-width:3;stroke-miterlimit:10;}
	.st2{clip-path:url(#SVGID_4_);fill:#E3171E;}
	.st3{clip-path:url(#SVGID_4_);fill:#030505;}
	.st4{fill:#030505;}
	.st5{fill:#E4151C;}
	.st6{fill:#A6A5A4;}
	.st7{fill:#3E3E40;}
	.st8{fill:#F4F6F7;}
	.st9{fill:#E3171E;}
	.st10{fill:#363B45;}
	.st11{fill:none;stroke:url(#SVGID_5_);stroke-miterlimit:10;}
	.st12{fill:none;stroke:url(#SVGID_6_);stroke-miterlimit:10;}
	.st13{clip-path:url(#SVGID_8_);fill:#F7F2EC;}
	.st14{opacity:0.26;clip-path:url(#SVGID_8_);}
	.st15{fill:#EFE7DB;}
	.st16{clip-path:url(#SVGID_8_);}
	.st17{opacity:0.58;}
	.st18{fill-rule:evenodd;clip-rule:evenodd;fill:#EFE7DB;}
	.st19{fill-rule:evenodd;clip-rule:evenodd;fill:#E7DCC9;}
	.st20{fill:#020203;}
	.st21{fill:#383736;}
	.st22{opacity:0.15;}
	.st23{fill-rule:evenodd;clip-rule:evenodd;fill:#020203;}
	.st24{fill:#F7F2EC;}
	.st25{opacity:0.18;}
	.st26{fill:#E0E0E0;}
	.st27{fill:#E5E2E2;}
	.st28{fill:url(#SVGID_9_);}
	.st29{fill:url(#SVGID_10_);}
	.st30{fill:url(#SVGID_11_);}
	.st31{fill:#FFFFFF;}
	.st32{fill:url(#SVGID_12_);}
	.st33{fill:url(#SVGID_13_);}
	.st34{opacity:0.5;}
	.st35{fill:#341231;}
	.st36{opacity:0.5;fill:#341231;}
	.st37{fill:url(#SVGID_14_);}
	.st38{fill:url(#SVGID_15_);}
	.st39{fill:url(#SVGID_16_);}
	.st40{opacity:0.4;fill:#1A1A38;}
	.st41{fill:url(#SVGID_17_);}
	.st42{fill:url(#SVGID_18_);}
	.st43{fill:url(#SVGID_19_);}
	.st44{fill:url(#SVGID_20_);}
	.st45{clip-path:url(#SVGID_22_);}
	.st46{fill:url(#SVGID_23_);}
	.st47{fill:#D8D8D8;}
	.st48{fill:url(#SVGID_24_);}
	.st49{fill:url(#SVGID_25_);}
	.st50{fill:#A01916;}
	.st51{fill:none;stroke:#E4151C;stroke-width:14;stroke-miterlimit:10;}
	.st52{fill:#1DBBEE;}
	.st53{fill:#09869B;}
	.st54{fill:url(#SVGID_26_);}
	.st55{fill:url(#SVGID_27_);}
	.st56{fill:url(#SVGID_28_);}
	.st57{fill:url(#SVGID_29_);}
	.st58{fill:url(#SVGID_30_);}
	.st59{fill:url(#SVGID_31_);}
	.st60{fill:url(#SVGID_32_);}
	.st61{fill:url(#SVGID_33_);}
	.st62{fill:#F9FAFB;}
	.st63{fill:url(#SVGID_34_);}
	.st64{fill:url(#SVGID_35_);}
	.st65{fill:#010202;}
	.st66{fill:url(#SVGID_36_);}
	.st67{fill:url(#SVGID_37_);}
	.st68{fill:url(#SVGID_38_);}
	.st69{fill:url(#SVGID_39_);}
	.st70{fill:url(#SVGID_40_);}
	.st71{fill:url(#SVGID_41_);}
	.st72{fill:url(#SVGID_42_);}
	.st73{fill:url(#SVGID_43_);}
	.st74{fill:url(#SVGID_44_);}
	.st75{fill:url(#SVGID_45_);}
	.st76{fill:url(#SVGID_46_);}
	.st77{fill:#B7B7B7;}
	.st78{fill:#919193;}
</style>
<g>
	<linearGradient id="SVGID_1_" gradientUnits="userSpaceOnUse" x1="248.0758" y1="596.9089" x2="267.1628" y2="126.0961">
		<stop  offset="0" style="stop-color:#09869B"/>
		<stop  offset="1" style="stop-color:#1DBBEE"/>
	</linearGradient>
	<path class="st0" d="M11.45,10.53c31.86-0.71,61.87,24.96,64.73,55.94c1.53,16.56,1.01,33.32,1.06,49.99
		c0.12,42.07-0.12,84.14,0.1,126.21c0.19,36.53,24.13,67.41,58.67,76.34c49.33,12.76,97.36-23.91,98.28-75.54
		c0.58-33.08,10.18-62.79,30.4-89.01c50.66-65.69,147.2-75.08,209.02-19.79c40.07,35.83,54.51,81.15,47.09,134.3
		c-1.87,0.09-3.39,0.23-4.92,0.24c-34.24,0.01-68.49,0.07-102.73-0.01c-34.33-0.08-62.34-25.61-65.64-59.68
		c-0.18-1.85-0.02-3.73-0.02-6.02c32.72,0,65.15,0,98.34,0c-3.8-8.16-9.21-14.2-15.38-19.39c-23.44-19.72-50.07-25.42-78.84-14.76
		c-28.7,10.63-45.55,32.18-50.65,62.33c-1.7,10.05-1.11,20.47-2.35,30.63c-7.19,59.07-53.61,109.36-111.94,121.6
		c-80.66,16.93-157.08-33.94-172.75-115.2c-1.54-7.97-2.34-16.21-2.36-24.33c-0.18-76.32-0.11-152.64-0.11-228.95
		C11.45,13.89,11.45,12.37,11.45,10.53z"/>
	<linearGradient id="SVGID_3_" gradientUnits="userSpaceOnUse" x1="275.2615" y1="332.865" x2="518.041" y2="332.865">
		<stop  offset="0" style="stop-color:#09869B"/>
		<stop  offset="1" style="stop-color:#1DBBEE"/>
	</linearGradient>
	<path style="fill:url(#SVGID_3_);" d="M518.04,281.04c-16.23,51.11-48.64,86.02-99.98,100.45c-54.49,15.32-102.31,1-142.8-37.49
		c6.8-11.09,13.95-21.16,19.4-32.07c5.37-10.75,9.03-22.36,13.49-33.72c0.35,0.51,1.05,1.37,1.59,2.33
		c29.33,52.58,102.48,55,135.02,4.38c1.9-2.96,3.75-4.25,7.37-4.22c20.15,0.19,40.31,0.08,60.46,0.1
		C514.11,280.8,515.64,280.93,518.04,281.04z"/>
	<linearGradient id="SVGID_4_" gradientUnits="userSpaceOnUse" x1="88.7613" y1="153.7108" x2="259.4897" y2="153.7108">
		<stop  offset="0" style="stop-color:#09869B"/>
		<stop  offset="1" style="stop-color:#1DBBEE"/>
	</linearGradient>
	<path style="fill:url(#SVGID_4_);" d="M227.04,208.75c-28.95-55.84-103.82-59.09-137.84-7.85c-0.17-1.83-0.39-3.05-0.39-4.27
		c-0.02-25.73,0.01-51.46-0.05-77.2c-0.01-2.77,0.36-4.64,3.3-6.16C144.94,86,216.55,97.89,257.64,140.93
		c0.48,0.5,0.91,1.04,1.85,2.13C243.85,162.14,232.77,183.69,227.04,208.75z"/>
	<g>
		<linearGradient id="SVGID_5_" gradientUnits="userSpaceOnUse" x1="156.7666" y1="332.1837" x2="159.1525" y2="211.2993">
			<stop  offset="0.0698" style="stop-color:#18B1DF"/>
			<stop  offset="0.2961" style="stop-color:#09869B"/>
			<stop  offset="0.7402" style="stop-color:#1DBBEE"/>
			<stop  offset="1" style="stop-color:#1DBBEE"/>
		</linearGradient>
		<path style="fill:url(#SVGID_5_);" d="M219.2,237.59c-3.86-30.39-29.78-53.09-61.24-53.1c-2.38-0.09-5.39,0.14-8.41,0.59
			c-28.58,4.26-50.43,27.82-52.21,56.36c-0.42,6.69,0.25,13.25,1.89,19.48c4.58,17.48,17.88,33.76,36.53,41.36
			c0,0,29.07,11.86,58.6-7.15c0.34-0.22,1.35-0.88,1.4-1.8c0.03-0.58-0.33-1.19-1.12-1.88c-1.87-1.63-3.12-3.57-3.86-6.06
			c-1.12-3.79-3.93-4.57-7.17-2.35c-6.54,4.49-13.85,6.94-21.68,7.47c-6.9,0.46-13.64-0.13-20.29-2.97
			c-16.48-7.03-28.03-23.16-28.29-40.56c-0.35-23.7,15.55-42.46,39.1-46.14c25.72-4.02,50.57,16.79,51.17,42.81
			c0.23,10.1-2.31,19.34-8.07,27.68c-0.67,0.97-1.96,1.99-0.73,3.34c1.23,1.35,2.28,2.98,4.3,3.37c1.9,0.37,3.37,1.46,4.72,2.79
			c2.75,2.72,2.8,2.72,5.05-0.61C217.64,267.29,221.17,253.09,219.2,237.59z"/>
		<linearGradient id="SVGID_6_" gradientUnits="userSpaceOnUse" x1="156.7878" y1="332.1841" x2="159.1737" y2="211.2997">
			<stop  offset="0.0698" style="stop-color:#18B1DF"/>
			<stop  offset="0.2961" style="stop-color:#09869B"/>
			<stop  offset="0.7402" style="stop-color:#1DBBEE"/>
			<stop  offset="1" style="stop-color:#1DBBEE"/>
		</linearGradient>
		<path style="fill:url(#SVGID_6_);" d="M158.52,210.3c-19.27,0-35.31,15.86-35.36,34.98c-0.05,19.6,15.84,35.62,35.33,35.62
			c19.36,0,35.33-15.96,35.35-35.32C193.86,226.2,177.95,210.3,158.52,210.3z M150.82,225.7c-8.02,3.49-12.02,9.67-11.68,18.26
			c0.13,3.12,1.42,6.34,2.81,9.22c1.96,4.06,2.11,6.45-0.41,8.06c-2.64,1.69-5.27,0.61-7.7-3.14c-9.39-14.5-2.81-34.81,13.32-41.11
			c3.56-1.39,6.2-0.73,7.38,1.85C155.81,221.61,154.57,224.06,150.82,225.7z"/>
	</g>
</g>
</svg>
