<svg xmlns="http://www.w3.org/2000/svg" width="68.944" height="64.815" viewBox="0 0 68.944 64.815"><path d="M68.788,51.889c-.7,1.637-3.668,2.84-9.07,3.679a25.256,25.256,0,0,0-.876,3.226,1.559,1.559,0,0,1-1.633,1.194h-.04c-1.265,0-2.586-.582-5.232-.582-3.571,0-4.8.814-7.575,2.772-2.94,2.079-5.759,3.873-9.968,3.689-4.261.314-7.813-2.277-9.812-3.69C21.792,60.2,20.565,59.4,17.008,59.4c-2.54,0-4.139.636-5.232.636A1.6,1.6,0,0,1,10.1,58.823a24.942,24.942,0,0,0-.878-3.249C6.441,55.142.162,54.046,0,51.245a1.431,1.431,0,0,1,1.2-1.49c9.37-1.542,13.59-11.163,13.765-11.571.01-.024.021-.046.032-.069a3.061,3.061,0,0,0,.332-2.525c-.68-1.6-3.618-2.177-4.855-2.666-3.193-1.261-3.638-2.71-3.449-3.7.328-1.728,2.925-2.792,4.444-2.081a7.706,7.706,0,0,0,3.171.848,2.748,2.748,0,0,0,1.341-.292c-.275-4.839-.956-11.754.766-15.616A18.346,18.346,0,0,1,33.775,1.09c.127,0,1.231-.012,1.361-.012A18.219,18.219,0,0,1,52.2,12.072c1.72,3.858,1.043,10.744.767,15.621a2.639,2.639,0,0,0,1.158.288,8.044,8.044,0,0,0,2.972-.843,3.645,3.645,0,0,1,2.758.008h0a2.8,2.8,0,0,1,2.1,2.406c.025,1.312-1.148,2.446-3.485,3.369-.285.112-.632.223-1,.34-1.319.418-3.313,1.051-3.853,2.326a3.058,3.058,0,0,0,.331,2.525c.012.023.022.046.032.069.175.408,4.392,10.026,13.766,11.571A1.47,1.47,0,0,1,68.788,51.889Z" transform="translate(0 -1.078)" fill="#61c8f1"/></svg>