<svg xmlns="http://www.w3.org/2000/svg" width="57.75" height="33" viewBox="0 0 57.75 33"><g transform="translate(-6 -24)"><path d="M78.64,28.8a2.2,2.2,0,0,0-1.2.348l-11.15,7.038a1.1,1.1,0,0,0-.516.928v9.8a1.1,1.1,0,0,0,.516.928l11.15,7.038a2.317,2.317,0,0,0,1.2.348h2.681a1.1,1.1,0,0,0,1.109-1.1V29.9a1.106,1.106,0,0,0-1.109-1.1Z" transform="translate(-18.68 -1.5)" fill="#61c8f1"/><path d="M37.131,57H12.639A6.66,6.66,0,0,1,6,50.374V30.626A6.649,6.649,0,0,1,12.626,24H37.118a6.649,6.649,0,0,1,6.626,6.626V50.361A6.632,6.632,0,0,1,37.131,57Z" fill="#61c8f1"/></g></svg>