<svg xmlns="http://www.w3.org/2000/svg" width="61.265" height="65.243" viewBox="0 0 61.265 65.243"><g transform="translate(0)"><g transform="translate(0 0)"><path d="M63.307,81.163,97.23,16.4" transform="translate(-56.794 -16.4)" fill="#61c8f1"/><path d="M127.489,81.163,161.413,16.4" transform="translate(-112.363 -16.4)" fill="#61c8f1"/><path d="M151.753,81.176l33.908-64.7" transform="translate(-133.362 -16.413)" fill="#61c8f1"/><path d="M218.509,81.163,252.433,16.4" transform="translate(-191.167 -16.4)" fill="#61c8f1"/><path d="M31.2,81.643,65.376,16.4" transform="translate(-17.8 -16.4)" fill="#61c8f1"/><path d="M14.782,81.643,48.957,16.4" transform="translate(-14.782 -16.4)" fill="#61c8f1"/><path d="M18.864,53.094h57.25" transform="translate(-15.532 -23.144)" fill="#61c8f1"/><path d="M18.864,27.257h57.25" transform="translate(-15.532 -18.395)" fill="#61c8f1"/><path d="M18.864,84.718h57.25" transform="translate(-15.532 -28.957)" fill="#61c8f1"/><path d="M18.864,58.877h57.25" transform="translate(-15.532 -24.207)" fill="#61c8f1"/><path d="M96.212,81.162,80.758,16.4" transform="translate(-67.405 -16.4)" fill="#61c8f1"/><path d="M148.294,81.254,132.936,16.895" transform="translate(-108.986 -16.491)" fill="#61c8f1"/><path d="M208.734,81.163,193.28,16.4" transform="translate(-157.155 -16.4)" fill="#61c8f1"/></g><path d="M98.576,111.689A31.841,31.841,0,0,0,68.141,133.52h4.51a26.013,26.013,0,0,1,1.677-3.61h8.68a36.567,36.567,0,0,0-.948,3.61h4.4a33.934,33.934,0,0,1,1.109-3.61h8.376v3.61h4.245v-3.61h9.049a31.667,31.667,0,0,1,1.241,3.61h4.4a35.518,35.518,0,0,0-1.061-3.61h9.011a26,26,0,0,1,1.677,3.61H129A31.829,31.829,0,0,0,98.576,111.689Zm6.405,4.994a27.653,27.653,0,0,1,14.886,8.983h-7.874a29.778,29.778,0,0,0-7.012-8.983Zm-14.052.313a28.189,28.189,0,0,0-6.254,8.67H77.285A27.618,27.618,0,0,1,90.93,116.995Zm9.258,1.365a24.465,24.465,0,0,1,6.851,7.306h-6.851Zm-4.245.028v7.277h-6.4A22.473,22.473,0,0,1,95.942,118.388ZM69.411,137.623a1.814,1.814,0,0,0-1.061.294.872.872,0,0,0-.426.73,2.8,2.8,0,0,0,.2.891l2.255,6.481c.069.194.148.412.237.644a2.217,2.217,0,0,0,.36.616,1.481,1.481,0,0,0,.6.417,2.512,2.512,0,0,0,.948.152,2.168,2.168,0,0,0,1.128-.256,1.547,1.547,0,0,0,.6-.559,10.177,10.177,0,0,0,.417-.957l2.018-5.685,2.009,5.714c.167.423.3.736.407.938a1.5,1.5,0,0,0,.587.559,2.227,2.227,0,0,0,1.137.246,2.2,2.2,0,0,0,1.165-.256,1.528,1.528,0,0,0,.578-.588,9.381,9.381,0,0,0,.388-.985l2.255-6.481a3.114,3.114,0,0,0,.208-.891.866.866,0,0,0-.436-.73,1.826,1.826,0,0,0-1.052-.294,1.669,1.669,0,0,0-.957.227,1.3,1.3,0,0,0-.455.5,5.293,5.293,0,0,0-.256.711l-1.592,5.515-1.781-5.164a9.657,9.657,0,0,0-.407-.948,1.627,1.627,0,0,0-.6-.578,2.267,2.267,0,0,0-1.2-.265,2.388,2.388,0,0,0-1.2.256,1.645,1.645,0,0,0-.635.6,6.875,6.875,0,0,0-.407.938l-1.772,5.164-1.6-5.553a3.151,3.151,0,0,0-.483-1.014,1.4,1.4,0,0,0-1.166-.388Zm21.822,0a1.814,1.814,0,0,0-1.061.294.872.872,0,0,0-.426.73,2.873,2.873,0,0,0,.208.891l2.255,6.481c.069.194.148.412.237.644a2.193,2.193,0,0,0,.351.616,1.481,1.481,0,0,0,.6.417,2.512,2.512,0,0,0,.948.152,2.2,2.2,0,0,0,1.137-.256,1.513,1.513,0,0,0,.587-.559,10.172,10.172,0,0,0,.417-.957L98.5,140.39l2.009,5.714c.167.423.3.736.407.938a1.5,1.5,0,0,0,.587.559,2.228,2.228,0,0,0,1.137.246,2.2,2.2,0,0,0,1.165-.256,1.527,1.527,0,0,0,.578-.588,9.377,9.377,0,0,0,.389-.985l2.255-6.481a3.114,3.114,0,0,0,.208-.891.866.866,0,0,0-.436-.73,1.825,1.825,0,0,0-1.052-.294,1.669,1.669,0,0,0-.957.227,1.3,1.3,0,0,0-.455.5,5.3,5.3,0,0,0-.256.711l-1.592,5.515-1.781-5.164a9.665,9.665,0,0,0-.407-.948,1.591,1.591,0,0,0-.587-.578,2.267,2.267,0,0,0-1.2-.265,2.427,2.427,0,0,0-1.213.256,1.646,1.646,0,0,0-.635.6,6.875,6.875,0,0,0-.407.938l-1.772,5.164-1.6-5.553a3.149,3.149,0,0,0-.474-1.014,1.424,1.424,0,0,0-1.175-.388Zm21.822,0a1.814,1.814,0,0,0-1.061.294.872.872,0,0,0-.426.73,2.872,2.872,0,0,0,.208.891l2.255,6.481c.069.194.148.412.237.644a2.193,2.193,0,0,0,.351.616,1.481,1.481,0,0,0,.6.417,2.512,2.512,0,0,0,.948.152,2.2,2.2,0,0,0,1.137-.256,1.513,1.513,0,0,0,.587-.559,9.713,9.713,0,0,0,.426-.957l2.009-5.685,2.009,5.714c.167.423.3.736.407.938a1.5,1.5,0,0,0,.587.559,2.227,2.227,0,0,0,1.137.246,2.2,2.2,0,0,0,1.165-.256,1.527,1.527,0,0,0,.578-.588,9.384,9.384,0,0,0,.389-.985l2.255-6.481a3.115,3.115,0,0,0,.208-.891.855.855,0,0,0-.426-.73,1.857,1.857,0,0,0-1.061-.294,1.669,1.669,0,0,0-.957.227,1.3,1.3,0,0,0-.455.5,5.3,5.3,0,0,0-.256.711l-1.582,5.515-1.791-5.164a9.665,9.665,0,0,0-.407-.948,1.592,1.592,0,0,0-.587-.578,2.267,2.267,0,0,0-1.2-.265,2.427,2.427,0,0,0-1.213.256,1.645,1.645,0,0,0-.635.6,6.869,6.869,0,0,0-.407.938l-1.772,5.164-1.592-5.553a3.151,3.151,0,0,0-.483-1.014,1.424,1.424,0,0,0-1.175-.388ZM67.98,151.391a32.1,32.1,0,0,0,61.193,0h-4.482a26.143,26.143,0,0,1-1.535,3.534h-9.1a36.11,36.11,0,0,0,.976-3.534h-4.33a29.672,29.672,0,0,1-1.109,3.534h-9.409v-3.534H95.942v3.534H87.348a35.915,35.915,0,0,1-1-3.534H81.985c.244,1.2.542,2.378.881,3.534H74a26.2,26.2,0,0,1-1.545-3.534H67.98Zm8.8,7.779h7.609a26.955,26.955,0,0,0,6.263,9.239A27.556,27.556,0,0,1,76.783,159.171Zm12.337,0h6.822V167.1A20.224,20.224,0,0,1,89.12,159.171Zm11.067,0h7.3a23.248,23.248,0,0,1-7.3,7.732Zm12.176,0h8.007a27.61,27.61,0,0,1-15.6,9.675A28.578,28.578,0,0,0,112.363,159.171Z" transform="translate(-67.918 -110.114)" fill="#61c8f1"/></g></svg>